<?xml version="1.0" encoding="UTF-8"?><svg id="Layer_2" xmlns="http://www.w3.org/2000/svg" viewBox="0 0 600 600"><defs><style>.cls-1{fill:#DB7093;}.cls-2{fill:#fff;}</style></defs><g id="Layer_1-2"><rect class="cls-2" width="600" height="600"/><path class="cls-1" d="M377.02,293.91l40.76-2.91c1.17-17.08,2.81-33.19,4.95-48.33,2.13-15.14,4.17-27.46,6.11-36.97,1.94-9.51,3.29-15.43,4.07-17.76l-2.91-5.24c-3.11-.77-10.1-2.23-20.96-4.37-10.87-2.13-24.16-4.27-39.88-6.4-15.73-2.13-30.77-3.2-45.13-3.2-17.16,0-33.49,1.63-49,4.87,2.43,5.66,5.13,11.84,8.11,18.51h0c3.27,7.34,6.35,14.22,9.26,20.64,3.29-.24,6.66-.36,10.09-.36,50.85,0,76.28,17.28,76.28,51.82,0,6.99-.2,13.2-.58,18.63-.39,5.44-.78,9.13-1.17,11.06Z"/><path class="cls-1" d="M364.5,493.63c-14.17,13.98-33.29,20.96-57.35,20.96s-44.35-6.5-62.01-19.51c-17.67-13-31.35-31.63-41.05-55.9-9.71-24.26-14.55-52.89-14.55-85.89,0-44.25,9.99-78.8,29.99-103.64,1.88-2.33,3.82-4.56,5.84-6.67l-20.14-40.27c-24.6,16.47-44.21,37.92-58.77,64.41-17.09,31.06-25.62,66.38-25.62,105.98,0,36.88,7.08,69,21.25,96.37,14.17,27.37,34.25,48.43,60.26,63.18,26,14.76,56.67,22.13,92,22.13,20.96,0,40.56-1.75,58.81-5.24,18.24-3.5,33.57-7.28,46-11.36,12.42-4.08,18.63-6.3,18.63-6.7l4.08-5.82c1.54-18.63,3.98-38.62,7.27-59.97,3.29-21.34,5.53-35.13,6.7-41.34l-40.76,3.49c-6.21,29.9-16.4,51.82-30.57,65.8Z"/><path class="cls-1" d="M164.5,125.67c7.57,4.28,13.88,10.19,18.92,17.76,1.72,2.58,3.62,5.7,5.7,9.35,1.49,2.61,3.08,5.49,4.75,8.64.05.09.1.18.14.27.5.95,1.02,1.93,1.54,2.93.05.1.11.21.16.31,1.1,2.12,2.25,4.36,3.43,6.7.14.29.29.58.44.87.44.88.89,1.77,1.34,2.68.17.33.33.67.5,1,.59,1.19,1.19,2.4,1.8,3.65l5.36,10.72,27.07,54.14,21.72,43.45c6.6,13.2,11.06,24.26,13.39,33.19,2.33,8.93,3.5,19.02,3.5,30.28v22.13c0,14.76-1.07,25.82-3.2,33.19-2.14,7.38-6.5,13.01-13.1,16.89-6.61,3.88-17.28,6.99-32.03,9.32l-2.77,25.37c1.28,2.07,2.61,4.06,3.97,6,5.96-.77,15.26-1.81,27.91-3.13,16.69-1.75,31.24-2.62,43.67-2.62,16.3,0,32.8.29,49.5.87,12.06.42,21.37.79,27.96,1.11,4.28-9.75,7.8-21.13,10.52-34.11l-.63-1.06c-1.95.39-5.53.78-10.77,1.16-5.24.39-11.16.58-17.76.58-9.71,0-16.5-2.52-20.38-7.57-3.88-5.04-5.82-14.17-5.82-27.37,0-31.82.58-53.57,1.75-65.21,1.16-11.65,4.46-22.51,9.9-32.61l25.07-45.29c-2.41-7-6.75-12.6-13.09-16.91-4.81-3.27-10.82-5.85-17.96-7.73l-23.14,44.88h-4.08c-1.57-3.05-3.37-6.67-5.39-10.84-.24-.49-.48-1-.73-1.5-.2-.41-.39-.81-.59-1.23-.24-.49-.48-1.01-.73-1.52-.22-.45-.43-.89-.65-1.35-.22-.47-.45-.95-.68-1.43-.7-1.46-1.41-2.97-2.14-4.54-.01-.02-.02-.04-.03-.07-.36-.76-.73-1.55-1.09-2.34-.15-.31-.29-.62-.44-.93-.35-.75-.71-1.51-1.06-2.28-.18-.38-.35-.76-.54-1.15-.36-.78-.73-1.57-1.1-2.37-.18-.39-.36-.78-.54-1.17-.37-.81-.76-1.64-1.14-2.48-.19-.41-.38-.82-.57-1.24-.39-.85-.78-1.71-1.18-2.58-.19-.42-.38-.84-.58-1.26-.4-.87-.81-1.77-1.22-2.66-.2-.45-.41-.9-.62-1.35-.41-.9-.83-1.82-1.25-2.74-3.7-8.14-7.73-17.1-12.1-26.91-4.75-10.65-8.78-19.98-12.12-28.01-.96-2.31-1.86-4.51-2.7-6.61-.01-.03-.02-.05-.03-.08-.39-.98-.77-1.92-1.14-2.85-.05-.13-.1-.26-.15-.38-5.16-13.09-7.74-21.42-7.74-24.95,0-6.6,2.71-11.25,8.15-13.98,5.43-2.71,15.91-4.66,31.44-5.82l2.91-26.2-2.33-4.66c-6.22.39-19.02,1.26-38.43,2.62-19.41,1.36-35.72,2.04-48.91,2.04-14.37,0-28.24-.19-41.63-.58-13.39-.38-22.42-.77-27.08-1.16l-4.08,29.12,1.17,2.33c13.58,1.95,24.16,5.05,31.73,9.32Z"/><path class="cls-1" d="M475.72,84.33c-3.49.39-11.26.87-23.29,1.46-12.04.58-23.1.87-33.19.87-14.76,0-32.61-.77-53.57-2.33l-16.3-.58-4.08,27.37,1.16,2.33c11.64.78,20.18,2.43,25.62,4.95,5.43,2.53,8.15,6.11,8.15,10.77,0,7.38-2.91,16.88-8.74,28.53l-2.91,5.64c.57.07,1.13.14,1.71.22,15.76,2.14,29.34,4.32,40.37,6.49.49.1.96.19,1.43.28,5.51-9.37,10.03-16.6,13.55-21.65,5.82-8.34,12.32-15.14,19.51-20.38,7.18-5.24,16.78-9.22,28.82-11.94l4.08-27.95-2.33-4.08Z"/></g></svg>